<svg xmlns="http://www.w3.org/2000/svg" viewBox="0 0 500 500"><g id="freepik--background-simple--inject-74"><path style="fill:#404740" d="M470.56,253.85c-4.08,41.61-22.33,90.42-60.39,113.81-57.5,35.33-51.5,86.63-164.69,112.67a239.66,239.66,0,0,1-50.3,6.3,198.45,198.45,0,0,1-24.78-1.18c-72.47-8-122.17-55.7-141.31-114.56-25.19-77.42,20.56-130.12,51-162s51-128.66,162.11-155.11a231.79,231.79,0,0,1,51.7-6.5c39.72-.33,83.3,11.06,113.84,36.77q3.45,2.89,6.71,6C457,130.67,476.13,197.12,470.56,253.85Z" class="WNjjoycK_0"/><path style="fill:#fff;opacity:.7000000000000001" d="M470.56,253.85c-4.08,41.61-22.33,90.42-60.39,113.81-57.5,35.33-51.5,86.63-164.69,112.67a239.66,239.66,0,0,1-50.3,6.3,198.45,198.45,0,0,1-24.78-1.18c-72.47-8-122.17-55.7-141.31-114.56-25.19-77.42,20.56-130.12,51-162s51-128.66,162.11-155.11a231.79,231.79,0,0,1,51.7-6.5c39.72-.33,83.3,11.06,113.84,36.77q3.45,2.89,6.71,6C457,130.67,476.13,197.12,470.56,253.85Z" class="WNjjoycK_1"/></g><g id="freepik--Table--inject-74"><path d="M14.14,429.37L494.55,429.37" class="WNjjoycK_2" style="fill:none;stroke:#263238;stroke-miterlimit:10"/></g><g id="freepik--flask-3--inject-74"><path style="fill:#fff;stroke:#263238;stroke-linecap:round;stroke-linejoin:round" d="M482,404.39,401.36,243.33v-61.5H348.94v61.5l-80.6,161.06a17.89,17.89,0,0,0,16.43,25H465.58A17.89,17.89,0,0,0,482,404.39Z" class="WNjjoycK_3"/><path d="M317.03,324.7L313.04,332.79" class="WNjjoycK_4" style="fill:none;stroke:#263238;stroke-miterlimit:10"/><path d="M355.99,200.8L355.99,245.64L322.03,314.55" class="WNjjoycK_5" style="fill:none;stroke:#263238;stroke-miterlimit:10"/><path style="fill:#fff;stroke:#263238;stroke-linecap:round;stroke-linejoin:round" width="60.34" height="9.14" d="M 349.08,176.87 L 401.41999999999996,176.87 A 4,4,0,0,1,405.41999999999996,180.87 L 405.41999999999996,182.01 A 4,4,0,0,1,401.41999999999996,186.01 L 349.08,186.01 A 4,4,0,0,1,345.08,182.01 L 345.08,180.87 A 4,4,0,0,1,349.08,176.87" class="WNjjoycK_6"/><path style="fill:#404740;stroke:#263238;stroke-linecap:round;stroke-linejoin:round" d="M444.87,344H305.49L276,400.88c-4.73,11.37,3.31,24.05,15.26,24.05H459.12c11.95,0,20-12.68,15.26-24.05Z" class="WNjjoycK_7"/><path style="fill:#263238;stroke:#263238;stroke-linecap:round;stroke-linejoin:round" d="M282.83,409.11c-2.73-5.45-1.66-14.18.21-21.86L276,400.88c-4.73,11.37,3.31,24.05,15.26,24.05H314C293.2,422.39,288.37,420.18,282.83,409.11Z" class="WNjjoycK_8"/><path style="fill:#263238;stroke:#263238;stroke-linecap:round;stroke-linejoin:round" d="M450.07,424.93h9.05c11.95,0,20-12.68,15.26-24.05l-10.55-20.35a152.23,152.23,0,0,1,3,19C467.5,408.7,463.32,420.17,450.07,424.93Z" class="WNjjoycK_9"/><path style="fill:#263238;stroke:#263238;stroke-linecap:round;stroke-linejoin:round" d="M373.47,355c27.85-1.16,57.45-7.8,70.27-11H305.49l-.19.36C313.76,347.26,342.53,356.25,373.47,355Z" class="WNjjoycK_10"/><path style="fill:#404740;stroke:#263238;stroke-linecap:round;stroke-linejoin:round" d="M411.56,348.37c0,1.54-18.6,5.87-40.54,5.87s-38.89-4.33-38.89-5.87,17.78-2.77,39.72-2.77S411.56,346.84,411.56,348.37Z" class="WNjjoycK_11"/><path d="M397.24,370.08L373.28,370.08" class="WNjjoycK_12" style="fill:none;stroke:#263238;stroke-linecap:round;stroke-linejoin:round"/><path d="M397.24,340.11L373.28,340.11" class="WNjjoycK_13" style="fill:none;stroke:#263238;stroke-linecap:round;stroke-linejoin:round"/><path d="M397.24,310.14L373.28,310.14" class="WNjjoycK_14" style="fill:none;stroke:#263238;stroke-linecap:round;stroke-linejoin:round"/><path d="M429.25,400.16A14.21,14.84 0,1,1 457.66999999999996,400.16A14.21,14.84 0,1,1 429.25,400.16" class="WNjjoycK_15" style="fill:#fff;stroke:#263238;stroke-miterlimit:10"/><path style="fill:#fff;stroke:#263238;stroke-miterlimit:10" d="M436.2,378.66a4.42,4.42,0,1,1-4.42-4.42A4.42,4.42,0,0,1,436.2,378.66Z" class="WNjjoycK_16"/><path d="M397.24,280.18L373.28,280.18L373.28,400.05L397.24,400.05" class="WNjjoycK_17" style="fill:none;stroke:#263238;stroke-linecap:round;stroke-linejoin:round"/></g><g id="freepik--flask-1--inject-74"><path style="fill:#fff;stroke:#263238;stroke-miterlimit:10" d="M124.52,275.73V124.59h-55V275.73a79.32,79.32,0,1,0,55,0Z" class="WNjjoycK_18"/><path style="fill:none;stroke:#263238;stroke-miterlimit:10" d="M117.7,157V279.51s12.64,2.53,22.74,10.74" class="WNjjoycK_19"/><path d="M117.7,132.36L117.7,148.78" class="WNjjoycK_20" style="fill:none;stroke:#263238;stroke-miterlimit:10"/><path style="fill:#fff;stroke:#263238;stroke-linecap:round;stroke-linejoin:round" d="M123.49,127.3H69.93a3.22,3.22,0,0,1-3.22-3.22h0a3.23,3.23,0,0,1,3.22-3.23h53.56a3.23,3.23,0,0,1,3.23,3.23h0A3.23,3.23,0,0,1,123.49,127.3Z" class="WNjjoycK_21"/><path style="fill:#404740;stroke:#263238;stroke-linecap:round;stroke-linejoin:round" d="M29.1,330A70.86,70.86,0,1,0,165,330Z" class="WNjjoycK_22"/><path style="fill:#263238;stroke:#263238;stroke-linecap:round;stroke-linejoin:round" d="M34,350.05A78.73,78.73,0,0,1,36.6,330H29.1a70.76,70.76,0,0,0,67.92,91C62.21,420.91,34,389.19,34,350.05Z" class="WNjjoycK_23"/><path style="fill:#263238;stroke:#263238;stroke-linecap:round;stroke-linejoin:round" d="M165,330h-7.51a78.73,78.73,0,0,1,2.61,20.09c0,39.14-28.22,70.86-63,70.86A70.79,70.79,0,0,0,165,330Z" class="WNjjoycK_24"/><path d="M101.92,332.25A21.47,21.79 0,1,1 144.86,332.25A21.47,21.79 0,1,1 101.92,332.25" class="WNjjoycK_25" style="fill:#fff;stroke:#263238;stroke-miterlimit:10"/><path style="fill:#fff;stroke:#263238;stroke-miterlimit:10" d="M95,304.14a6.32,6.32,0,1,1-6.32-6.31A6.32,6.32,0,0,1,95,304.14Z" class="WNjjoycK_26"/></g><g id="freepik--flask-2--inject-74"><path style="fill:#fff;stroke:#263238;stroke-linecap:round;stroke-linejoin:round" d="M160.66,257.69s-13.2,4.66-12.43,9.32,9.33,10.88,11.66,21c.26,1.13.52,2.18.77,3.2V416A13.33,13.33,0,0,0,174,429.37h92.18A13.33,13.33,0,0,0,279.52,416V268.65l3.16-8.34a1.94,1.94,0,0,0-1.81-2.62Z" class="WNjjoycK_27"/><path style="fill:#404740;stroke:#263238;stroke-linecap:round;stroke-linejoin:round" d="M164.16,331.44v80A12.5,12.5,0,0,0,176.65,424H263a12.5,12.5,0,0,0,12.49-12.5v-80Z" class="WNjjoycK_28"/><path style="fill:none;stroke:#263238;stroke-miterlimit:10" d="M168.36,310.06v96a16.59,16.59,0,0,0,6.32,12" class="WNjjoycK_29"/><path d="M168.36,293L168.36,302.48" class="WNjjoycK_30" style="fill:none;stroke:#263238;stroke-miterlimit:10"/><path style="fill:#263238;stroke:#263238;stroke-linecap:round;stroke-linejoin:round" d="M275.5,331.44H249.87L196.67,424H263a12.5,12.5,0,0,0,12.49-12.5Z" class="WNjjoycK_31"/><path d="M238.28,365.89L222.07,365.89" class="WNjjoycK_32" style="fill:none;stroke:#263238;stroke-linecap:round;stroke-linejoin:round"/><path d="M238.28,345.62L222.07,345.62" class="WNjjoycK_33" style="fill:none;stroke:#263238;stroke-linecap:round;stroke-linejoin:round"/><path d="M238.28,325.34L222.07,325.34" class="WNjjoycK_34" style="fill:none;stroke:#263238;stroke-linecap:round;stroke-linejoin:round"/><path d="M238.28,305.07L222.07,305.07L222.07,386.16L238.28,386.16" class="WNjjoycK_35" style="fill:none;stroke:#263238;stroke-linecap:round;stroke-linejoin:round"/><path style="fill:#263238" width="23.12" height="24.84" d="M 190.38,362.21 L 205.5,362.21 A 4,4,0,0,1,209.5,366.21 L 209.5,383.04999999999995 A 4,4,0,0,1,205.5,387.04999999999995 L 190.38,387.04999999999995 A 4,4,0,0,1,186.38,383.04999999999995 L 186.38,366.21 A 4,4,0,0,1,190.38,362.21" class="WNjjoycK_36"/><path d="M274.05,267.04L171.84,267.04" class="WNjjoycK_37" style="fill:none;stroke:#263238;stroke-linecap:round;stroke-linejoin:round"/></g><g id="freepik--Tube--inject-74"><path style="fill:#fff;stroke:#263238;stroke-miterlimit:10" d="M333,425.61c-2.88-.62-13-4.38-20.94-8.14a22.82,22.82,0,0,1-5.77-4,18.51,18.51,0,0,1-5.83-13.57v-292H255.93V400.75A18.38,18.38,0,0,1,246.48,417c-.29.16-.59.31-.89.46-8,3.76-18.06,7.52-21,8.14s-5,3.76-5,3.76H338S335.85,426.24,333,425.61Z" class="WNjjoycK_38"/><path style="fill:#404740;stroke:#263238;stroke-linecap:round;stroke-linejoin:round" d="M303.82,414.67c-.42-.39-.83-.8-1.21-1.21a20,20,0,0,1-5.05-13.57V194.75H259v206a20,20,0,0,1-5.31,13.92Z" class="WNjjoycK_39"/><path style="fill:#263238;stroke:#263238;stroke-linecap:round;stroke-linejoin:round" d="M302.61,413.46a20,20,0,0,1-5.05-13.57V194.75H259l33.93,3.78v206.7a15,15,0,0,0,3.52,9.44h7.41C303.4,414.28,303,413.87,302.61,413.46Z" class="WNjjoycK_40"/><path d="M285.81,123.49L276.37,123.49L276.37,410.89L285.81,410.89" class="WNjjoycK_41" style="fill:none;stroke:#263238;stroke-miterlimit:10"/><path d="M285.81,137.18L276.37,137.18" class="WNjjoycK_42" style="fill:none;stroke:#263238;stroke-miterlimit:10"/><path d="M285.81,150.87L276.37,150.87" class="WNjjoycK_43" style="fill:none;stroke:#263238;stroke-miterlimit:10"/><path d="M285.81,164.55L276.37,164.55" class="WNjjoycK_44" style="fill:none;stroke:#263238;stroke-miterlimit:10"/><path d="M285.81,178.24L276.37,178.24" class="WNjjoycK_45" style="fill:none;stroke:#263238;stroke-miterlimit:10"/><path d="M285.81,191.92L276.37,191.92" class="WNjjoycK_46" style="fill:none;stroke:#263238;stroke-miterlimit:10"/><path d="M285.81,205.61L276.37,205.61" class="WNjjoycK_47" style="fill:none;stroke:#263238;stroke-miterlimit:10"/><path d="M285.81,219.29L276.37,219.29" class="WNjjoycK_48" style="fill:none;stroke:#263238;stroke-miterlimit:10"/><path d="M285.81,232.98L276.37,232.98" class="WNjjoycK_49" style="fill:none;stroke:#263238;stroke-miterlimit:10"/><path d="M285.81,246.67L276.37,246.67" class="WNjjoycK_50" style="fill:none;stroke:#263238;stroke-miterlimit:10"/><path d="M285.81,260.35L276.37,260.35" class="WNjjoycK_51" style="fill:none;stroke:#263238;stroke-miterlimit:10"/><path d="M285.81,274.04L276.37,274.04" class="WNjjoycK_52" style="fill:none;stroke:#263238;stroke-miterlimit:10"/><path d="M285.81,287.72L276.37,287.72" class="WNjjoycK_53" style="fill:none;stroke:#263238;stroke-miterlimit:10"/><path d="M285.81,301.41L276.37,301.41" class="WNjjoycK_54" style="fill:none;stroke:#263238;stroke-miterlimit:10"/><path d="M285.81,315.09L276.37,315.09" class="WNjjoycK_55" style="fill:none;stroke:#263238;stroke-miterlimit:10"/><path d="M285.81,328.78L276.37,328.78" class="WNjjoycK_56" style="fill:none;stroke:#263238;stroke-miterlimit:10"/><path d="M285.81,342.47L276.37,342.47" class="WNjjoycK_57" style="fill:none;stroke:#263238;stroke-miterlimit:10"/><path d="M285.81,356.15L276.37,356.15" class="WNjjoycK_58" style="fill:none;stroke:#263238;stroke-miterlimit:10"/><path d="M285.81,369.84L276.37,369.84" class="WNjjoycK_59" style="fill:none;stroke:#263238;stroke-miterlimit:10"/><path d="M285.81,383.52L276.37,383.52" class="WNjjoycK_60" style="fill:none;stroke:#263238;stroke-miterlimit:10"/><path d="M285.81,397.21L276.37,397.21" class="WNjjoycK_61" style="fill:none;stroke:#263238;stroke-miterlimit:10"/><path d="M241.74,422.61L310.35,422.61" class="WNjjoycK_62" style="fill:none;stroke:#263238;stroke-miterlimit:10"/><path style="fill:#fff;stroke:#263238;stroke-miterlimit:10" d="M300.44,110.28H256.08a2.83,2.83,0,0,1-2.83-2.83h0a2.82,2.82,0,0,1,2.83-2.83h44.36a2.83,2.83,0,0,1,2.83,2.83h0A2.83,2.83,0,0,1,300.44,110.28Z" class="WNjjoycK_63"/></g><style data-made-with="vivus-instant">@keyframes WNjjoycK_fade{0%,92.3076923076923%{stroke-opacity:1}}@keyframes WNjjoycK_draw_0{15.384615384615385%{stroke-dashoffset:1381}53.84615384615385%{stroke-dashoffset:0}}@keyframes WNjjoycK_draw_1{15.68986568986569%{stroke-dashoffset:1381}54.15140415140415%{stroke-dashoffset:0}}@keyframes WNjjoycK_draw_2{15.995115995115997%{stroke-dashoffset:482}54.45665445665446%{stroke-dashoffset:0}}@keyframes WNjjoycK_draw_3{16.3003663003663%{stroke-dashoffset:789}54.761904761904766%{stroke-dashoffset:0}}@keyframes WNjjoycK_draw_4{16.605616605616603%{stroke-dashoffset:11}55.06715506715507%{stroke-dashoffset:0}}@keyframes WNjjoycK_draw_5{16.91086691086691%{stroke-dashoffset:123}55.372405372405375%{stroke-dashoffset:0}}@keyframes WNjjoycK_draw_6{17.216117216117215%{stroke-dashoffset:134}55.67765567765568%{stroke-dashoffset:0}}@keyframes WNjjoycK_draw_7{17.52136752136752%{stroke-dashoffset:504}55.98290598290598%{stroke-dashoffset:0}}@keyframes WNjjoycK_draw_8{17.826617826617827%{stroke-dashoffset:133}56.28815628815629%{stroke-dashoffset:0}}@keyframes WNjjoycK_draw_9{18.13186813186813%{stroke-dashoffset:119}56.593406593406606%{stroke-dashoffset:0}}@keyframes WNjjoycK_draw_10{18.43711843711844%{stroke-dashoffset:281}56.89865689865691%{stroke-dashoffset:0}}@keyframes WNjjoycK_draw_11{18.742368742368743%{stroke-dashoffset:163}57.2039072039072%{stroke-dashoffset:0}}@keyframes WNjjoycK_draw_12{19.047619047619047%{stroke-dashoffset:25}57.509157509157504%{stroke-dashoffset:0}}@keyframes WNjjoycK_draw_13{19.352869352869355%{stroke-dashoffset:25}57.81440781440781%{stroke-dashoffset:0}}@keyframes WNjjoycK_draw_14{19.65811965811966%{stroke-dashoffset:25}58.119658119658126%{stroke-dashoffset:0}}@keyframes WNjjoycK_draw_15{19.963369963369964%{stroke-dashoffset:93}58.42490842490843%{stroke-dashoffset:0}}@keyframes WNjjoycK_draw_16{20.268620268620268%{stroke-dashoffset:29}58.730158730158735%{stroke-dashoffset:0}}@keyframes WNjjoycK_draw_17{20.573870573870575%{stroke-dashoffset:169}59.03540903540904%{stroke-dashoffset:0}}@keyframes WNjjoycK_draw_18{20.87912087912088%{stroke-dashoffset:801}59.34065934065934%{stroke-dashoffset:0}}@keyframes WNjjoycK_draw_19{21.184371184371187%{stroke-dashoffset:149}59.64590964590965%{stroke-dashoffset:0}}@keyframes WNjjoycK_draw_20{21.48962148962149%{stroke-dashoffset:18}59.95115995115995%{stroke-dashoffset:0}}@keyframes WNjjoycK_draw_21{21.7948717948718%{stroke-dashoffset:129}60.25641025641026%{stroke-dashoffset:0}}@keyframes WNjjoycK_draw_22{22.1001221001221%{stroke-dashoffset:401}60.56166056166056%{stroke-dashoffset:0}}@keyframes WNjjoycK_draw_23{22.405372405372407%{stroke-dashoffset:266}60.866910866910864%{stroke-dashoffset:0}}@keyframes WNjjoycK_draw_24{22.71062271062271%{stroke-dashoffset:266}61.17216117216117%{stroke-dashoffset:0}}@keyframes WNjjoycK_draw_25{23.015873015873016%{stroke-dashoffset:137}61.47741147741147%{stroke-dashoffset:0}}@keyframes WNjjoycK_draw_26{23.32112332112332%{stroke-dashoffset:41}61.782661782661776%{stroke-dashoffset:0}}@keyframes WNjjoycK_draw_27{23.626373626373624%{stroke-dashoffset:585}62.08791208791209%{stroke-dashoffset:0}}@keyframes WNjjoycK_draw_28{23.93162393162393%{stroke-dashoffset:398}62.39316239316239%{stroke-dashoffset:0}}@keyframes WNjjoycK_draw_29{24.236874236874236%{stroke-dashoffset:111}62.698412698412696%{stroke-dashoffset:0}}@keyframes WNjjoycK_draw_30{24.54212454212454%{stroke-dashoffset:11}63.003663003663%{stroke-dashoffset:0}}@keyframes WNjjoycK_draw_31{24.847374847374848%{stroke-dashoffset:300}63.308913308913304%{stroke-dashoffset:0}}@keyframes WNjjoycK_draw_32{25.152625152625152%{stroke-dashoffset:18}63.61416361416361%{stroke-dashoffset:0}}@keyframes WNjjoycK_draw_33{25.457875457875456%{stroke-dashoffset:18}63.91941391941393%{stroke-dashoffset:0}}@keyframes WNjjoycK_draw_34{25.763125763125768%{stroke-dashoffset:18}64.22466422466422%{stroke-dashoffset:0}}@keyframes WNjjoycK_draw_35{26.06837606837607%{stroke-dashoffset:115}64.52991452991454%{stroke-dashoffset:0}}@keyframes WNjjoycK_draw_36{26.373626373626376%{stroke-dashoffset:91}64.83516483516483%{stroke-dashoffset:0}}@keyframes WNjjoycK_draw_37{26.678876678876684%{stroke-dashoffset:104}65.14041514041514%{stroke-dashoffset:0}}@keyframes WNjjoycK_draw_38{26.984126984126984%{stroke-dashoffset:850}65.44566544566544%{stroke-dashoffset:0}}@keyframes WNjjoycK_draw_39{27.28937728937729%{stroke-dashoffset:533}65.75091575091575%{stroke-dashoffset:0}}@keyframes WNjjoycK_draw_40{27.594627594627596%{stroke-dashoffset:520}66.05616605616606%{stroke-dashoffset:0}}@keyframes WNjjoycK_draw_41{27.8998778998779%{stroke-dashoffset:308}66.36141636141637%{stroke-dashoffset:0}}@keyframes WNjjoycK_draw_42{28.205128205128204%{stroke-dashoffset:11}66.66666666666667%{stroke-dashoffset:0}}@keyframes WNjjoycK_draw_43{28.51037851037851%{stroke-dashoffset:11}66.97191697191697%{stroke-dashoffset:0}}@keyframes WNjjoycK_draw_44{28.815628815628813%{stroke-dashoffset:11}67.27716727716727%{stroke-dashoffset:0}}@keyframes WNjjoycK_draw_45{29.120879120879117%{stroke-dashoffset:11}67.58241758241759%{stroke-dashoffset:0}}@keyframes WNjjoycK_draw_46{29.426129426129428%{stroke-dashoffset:11}67.88766788766789%{stroke-dashoffset:0}}@keyframes WNjjoycK_draw_47{29.731379731379732%{stroke-dashoffset:11}68.1929181929182%{stroke-dashoffset:0}}@keyframes WNjjoycK_draw_48{30.036630036630036%{stroke-dashoffset:11}68.4981684981685%{stroke-dashoffset:0}}@keyframes WNjjoycK_draw_49{30.341880341880344%{stroke-dashoffset:11}68.80341880341881%{stroke-dashoffset:0}}@keyframes WNjjoycK_draw_50{30.64713064713065%{stroke-dashoffset:11}69.1086691086691%{stroke-dashoffset:0}}@keyframes WNjjoycK_draw_51{30.952380952380953%{stroke-dashoffset:11}69.41391941391942%{stroke-dashoffset:0}}@keyframes WNjjoycK_draw_52{31.257631257631257%{stroke-dashoffset:11}69.71916971916973%{stroke-dashoffset:0}}@keyframes WNjjoycK_draw_53{31.562881562881568%{stroke-dashoffset:11}70.02442002442002%{stroke-dashoffset:0}}@keyframes WNjjoycK_draw_54{31.868131868131865%{stroke-dashoffset:11}70.32967032967032%{stroke-dashoffset:0}}@keyframes WNjjoycK_draw_55{32.17338217338217%{stroke-dashoffset:11}70.63492063492063%{stroke-dashoffset:0}}@keyframes WNjjoycK_draw_56{32.47863247863248%{stroke-dashoffset:11}70.94017094017093%{stroke-dashoffset:0}}@keyframes WNjjoycK_draw_57{32.78388278388278%{stroke-dashoffset:11}71.24542124542124%{stroke-dashoffset:0}}@keyframes WNjjoycK_draw_58{33.089133089133085%{stroke-dashoffset:11}71.55067155067155%{stroke-dashoffset:0}}@keyframes WNjjoycK_draw_59{33.39438339438339%{stroke-dashoffset:11}71.85592185592185%{stroke-dashoffset:0}}@keyframes WNjjoycK_draw_60{33.699633699633694%{stroke-dashoffset:11}72.16117216117216%{stroke-dashoffset:0}}@keyframes WNjjoycK_draw_61{34.004884004884005%{stroke-dashoffset:11}72.46642246642246%{stroke-dashoffset:0}}@keyframes WNjjoycK_draw_62{34.31013431013431%{stroke-dashoffset:70}72.77167277167277%{stroke-dashoffset:0}}@keyframes WNjjoycK_draw_63{34.61538461538461%{stroke-dashoffset:108}73.07692307692307%{stroke-dashoffset:0}}.WNjjoycK_0,.WNjjoycK_1{stroke-dasharray:1380 1382;stroke-dashoffset:1381;animation:WNjjoycK_draw_0 5200ms linear 0ms infinite,WNjjoycK_fade 5200ms linear 0ms infinite}.WNjjoycK_1{animation:WNjjoycK_draw_1 5200ms linear 0ms infinite,WNjjoycK_fade 5200ms linear 0ms infinite}.WNjjoycK_2{stroke-dasharray:481 483;stroke-dashoffset:482;animation:WNjjoycK_draw_2 5200ms linear 0ms infinite,WNjjoycK_fade 5200ms linear 0ms infinite}.WNjjoycK_3{stroke-dasharray:788 790;stroke-dashoffset:789;animation:WNjjoycK_draw_3 5200ms linear 0ms infinite,WNjjoycK_fade 5200ms linear 0ms infinite}.WNjjoycK_4{stroke-dasharray:10 12;stroke-dashoffset:11;animation:WNjjoycK_draw_4 5200ms linear 0ms infinite,WNjjoycK_fade 5200ms linear 0ms infinite}.WNjjoycK_5{stroke-dasharray:122 124;stroke-dashoffset:123;animation:WNjjoycK_draw_5 5200ms linear 0ms infinite,WNjjoycK_fade 5200ms linear 0ms infinite}.WNjjoycK_6{stroke-dasharray:133 135;stroke-dashoffset:134;animation:WNjjoycK_draw_6 5200ms linear 0ms infinite,WNjjoycK_fade 5200ms linear 0ms infinite}.WNjjoycK_7{stroke-dasharray:503 505;stroke-dashoffset:504;animation:WNjjoycK_draw_7 5200ms linear 0ms infinite,WNjjoycK_fade 5200ms linear 0ms infinite}.WNjjoycK_8{stroke-dasharray:132 134;stroke-dashoffset:133;animation:WNjjoycK_draw_8 5200ms linear 0ms infinite,WNjjoycK_fade 5200ms linear 0ms infinite}.WNjjoycK_9{stroke-dasharray:118 120;stroke-dashoffset:119;animation:WNjjoycK_draw_9 5200ms linear 0ms infinite,WNjjoycK_fade 5200ms linear 0ms infinite}.WNjjoycK_10{stroke-dasharray:280 282;stroke-dashoffset:281;animation:WNjjoycK_draw_10 5200ms linear 0ms infinite,WNjjoycK_fade 5200ms linear 0ms infinite}.WNjjoycK_11{stroke-dasharray:162 164;stroke-dashoffset:163;animation:WNjjoycK_draw_11 5200ms linear 0ms infinite,WNjjoycK_fade 5200ms linear 0ms infinite}.WNjjoycK_12{animation:WNjjoycK_draw_12 5200ms linear 0ms infinite,WNjjoycK_fade 5200ms linear 0ms infinite}.WNjjoycK_12,.WNjjoycK_13,.WNjjoycK_14{stroke-dasharray:24 26;stroke-dashoffset:25}.WNjjoycK_13{animation:WNjjoycK_draw_13 5200ms linear 0ms infinite,WNjjoycK_fade 5200ms linear 0ms infinite}.WNjjoycK_14{animation:WNjjoycK_draw_14 5200ms linear 0ms infinite,WNjjoycK_fade 5200ms linear 0ms infinite}.WNjjoycK_15{stroke-dasharray:92 94;stroke-dashoffset:93;animation:WNjjoycK_draw_15 5200ms linear 0ms infinite,WNjjoycK_fade 5200ms linear 0ms infinite}.WNjjoycK_16{stroke-dasharray:28 30;stroke-dashoffset:29;animation:WNjjoycK_draw_16 5200ms linear 0ms infinite,WNjjoycK_fade 5200ms linear 0ms infinite}.WNjjoycK_17{stroke-dasharray:168 170;stroke-dashoffset:169;animation:WNjjoycK_draw_17 5200ms linear 0ms infinite,WNjjoycK_fade 5200ms linear 0ms infinite}.WNjjoycK_18{stroke-dasharray:800 802;stroke-dashoffset:801;animation:WNjjoycK_draw_18 5200ms linear 0ms infinite,WNjjoycK_fade 5200ms linear 0ms infinite}.WNjjoycK_19{stroke-dasharray:148 150;stroke-dashoffset:149;animation:WNjjoycK_draw_19 5200ms linear 0ms infinite,WNjjoycK_fade 5200ms linear 0ms infinite}.WNjjoycK_20{stroke-dasharray:17 19;stroke-dashoffset:18;animation:WNjjoycK_draw_20 5200ms linear 0ms infinite,WNjjoycK_fade 5200ms linear 0ms infinite}.WNjjoycK_21{stroke-dasharray:128 130;stroke-dashoffset:129;animation:WNjjoycK_draw_21 5200ms linear 0ms infinite,WNjjoycK_fade 5200ms linear 0ms infinite}.WNjjoycK_22{stroke-dasharray:400 402;stroke-dashoffset:401;animation:WNjjoycK_draw_22 5200ms linear 0ms infinite,WNjjoycK_fade 5200ms linear 0ms infinite}.WNjjoycK_23,.WNjjoycK_24{stroke-dasharray:265 267;stroke-dashoffset:266;animation:WNjjoycK_draw_23 5200ms linear 0ms infinite,WNjjoycK_fade 5200ms linear 0ms infinite}.WNjjoycK_24{animation:WNjjoycK_draw_24 5200ms linear 0ms infinite,WNjjoycK_fade 5200ms linear 0ms infinite}.WNjjoycK_25{stroke-dasharray:136 138;stroke-dashoffset:137;animation:WNjjoycK_draw_25 5200ms linear 0ms infinite,WNjjoycK_fade 5200ms linear 0ms infinite}.WNjjoycK_26{stroke-dasharray:40 42;stroke-dashoffset:41;animation:WNjjoycK_draw_26 5200ms linear 0ms infinite,WNjjoycK_fade 5200ms linear 0ms infinite}.WNjjoycK_27{stroke-dasharray:584 586;stroke-dashoffset:585;animation:WNjjoycK_draw_27 5200ms linear 0ms infinite,WNjjoycK_fade 5200ms linear 0ms infinite}.WNjjoycK_28{stroke-dasharray:397 399;stroke-dashoffset:398;animation:WNjjoycK_draw_28 5200ms linear 0ms infinite,WNjjoycK_fade 5200ms linear 0ms infinite}.WNjjoycK_29{stroke-dasharray:110 112;stroke-dashoffset:111;animation:WNjjoycK_draw_29 5200ms linear 0ms infinite,WNjjoycK_fade 5200ms linear 0ms infinite}.WNjjoycK_30{stroke-dasharray:10 12;stroke-dashoffset:11;animation:WNjjoycK_draw_30 5200ms linear 0ms infinite,WNjjoycK_fade 5200ms linear 0ms infinite}.WNjjoycK_31{stroke-dasharray:299 301;stroke-dashoffset:300;animation:WNjjoycK_draw_31 5200ms linear 0ms infinite,WNjjoycK_fade 5200ms linear 0ms infinite}.WNjjoycK_32{animation:WNjjoycK_draw_32 5200ms linear 0ms infinite,WNjjoycK_fade 5200ms linear 0ms infinite}.WNjjoycK_32,.WNjjoycK_33,.WNjjoycK_34{stroke-dasharray:17 19;stroke-dashoffset:18}.WNjjoycK_33{animation:WNjjoycK_draw_33 5200ms linear 0ms infinite,WNjjoycK_fade 5200ms linear 0ms infinite}.WNjjoycK_34{animation:WNjjoycK_draw_34 5200ms linear 0ms infinite,WNjjoycK_fade 5200ms linear 0ms infinite}.WNjjoycK_35{stroke-dasharray:114 116;stroke-dashoffset:115;animation:WNjjoycK_draw_35 5200ms linear 0ms infinite,WNjjoycK_fade 5200ms linear 0ms infinite}.WNjjoycK_36{stroke-dasharray:90 92;stroke-dashoffset:91;animation:WNjjoycK_draw_36 5200ms linear 0ms infinite,WNjjoycK_fade 5200ms linear 0ms infinite}.WNjjoycK_37{stroke-dasharray:103 105;stroke-dashoffset:104;animation:WNjjoycK_draw_37 5200ms linear 0ms infinite,WNjjoycK_fade 5200ms linear 0ms infinite}.WNjjoycK_38{stroke-dasharray:849 851;stroke-dashoffset:850;animation:WNjjoycK_draw_38 5200ms linear 0ms infinite,WNjjoycK_fade 5200ms linear 0ms infinite}.WNjjoycK_39{stroke-dasharray:532 534;stroke-dashoffset:533;animation:WNjjoycK_draw_39 5200ms linear 0ms infinite,WNjjoycK_fade 5200ms linear 0ms infinite}.WNjjoycK_40{stroke-dasharray:519 521;stroke-dashoffset:520;animation:WNjjoycK_draw_40 5200ms linear 0ms infinite,WNjjoycK_fade 5200ms linear 0ms infinite}.WNjjoycK_41{stroke-dasharray:307 309;stroke-dashoffset:308;animation:WNjjoycK_draw_41 5200ms linear 0ms infinite,WNjjoycK_fade 5200ms linear 0ms infinite}.WNjjoycK_42{animation:WNjjoycK_draw_42 5200ms linear 0ms infinite,WNjjoycK_fade 5200ms linear 0ms infinite}.WNjjoycK_42,.WNjjoycK_43,.WNjjoycK_44,.WNjjoycK_45{stroke-dasharray:10 12;stroke-dashoffset:11}.WNjjoycK_43{animation:WNjjoycK_draw_43 5200ms linear 0ms infinite,WNjjoycK_fade 5200ms linear 0ms infinite}.WNjjoycK_44{animation:WNjjoycK_draw_44 5200ms linear 0ms infinite,WNjjoycK_fade 5200ms linear 0ms infinite}.WNjjoycK_45{animation:WNjjoycK_draw_45 5200ms linear 0ms infinite,WNjjoycK_fade 5200ms linear 0ms infinite}.WNjjoycK_46{animation:WNjjoycK_draw_46 5200ms linear 0ms infinite,WNjjoycK_fade 5200ms linear 0ms infinite}.WNjjoycK_46,.WNjjoycK_47,.WNjjoycK_48,.WNjjoycK_49{stroke-dasharray:10 12;stroke-dashoffset:11}.WNjjoycK_47{animation:WNjjoycK_draw_47 5200ms linear 0ms infinite,WNjjoycK_fade 5200ms linear 0ms infinite}.WNjjoycK_48{animation:WNjjoycK_draw_48 5200ms linear 0ms infinite,WNjjoycK_fade 5200ms linear 0ms infinite}.WNjjoycK_49{animation:WNjjoycK_draw_49 5200ms linear 0ms infinite,WNjjoycK_fade 5200ms linear 0ms infinite}.WNjjoycK_50{animation:WNjjoycK_draw_50 5200ms linear 0ms infinite,WNjjoycK_fade 5200ms linear 0ms infinite}.WNjjoycK_50,.WNjjoycK_51,.WNjjoycK_52,.WNjjoycK_53{stroke-dasharray:10 12;stroke-dashoffset:11}.WNjjoycK_51{animation:WNjjoycK_draw_51 5200ms linear 0ms infinite,WNjjoycK_fade 5200ms linear 0ms infinite}.WNjjoycK_52{animation:WNjjoycK_draw_52 5200ms linear 0ms infinite,WNjjoycK_fade 5200ms linear 0ms infinite}.WNjjoycK_53{animation:WNjjoycK_draw_53 5200ms linear 0ms infinite,WNjjoycK_fade 5200ms linear 0ms infinite}.WNjjoycK_54{animation:WNjjoycK_draw_54 5200ms linear 0ms infinite,WNjjoycK_fade 5200ms linear 0ms infinite}.WNjjoycK_54,.WNjjoycK_55,.WNjjoycK_56,.WNjjoycK_57{stroke-dasharray:10 12;stroke-dashoffset:11}.WNjjoycK_55{animation:WNjjoycK_draw_55 5200ms linear 0ms infinite,WNjjoycK_fade 5200ms linear 0ms infinite}.WNjjoycK_56{animation:WNjjoycK_draw_56 5200ms linear 0ms infinite,WNjjoycK_fade 5200ms linear 0ms infinite}.WNjjoycK_57{animation:WNjjoycK_draw_57 5200ms linear 0ms infinite,WNjjoycK_fade 5200ms linear 0ms infinite}.WNjjoycK_58{animation:WNjjoycK_draw_58 5200ms linear 0ms infinite,WNjjoycK_fade 5200ms linear 0ms infinite}.WNjjoycK_58,.WNjjoycK_59,.WNjjoycK_60,.WNjjoycK_61{stroke-dasharray:10 12;stroke-dashoffset:11}.WNjjoycK_59{animation:WNjjoycK_draw_59 5200ms linear 0ms infinite,WNjjoycK_fade 5200ms linear 0ms infinite}.WNjjoycK_60{animation:WNjjoycK_draw_60 5200ms linear 0ms infinite,WNjjoycK_fade 5200ms linear 0ms infinite}.WNjjoycK_61{animation:WNjjoycK_draw_61 5200ms linear 0ms infinite,WNjjoycK_fade 5200ms linear 0ms infinite}.WNjjoycK_62{stroke-dasharray:69 71;stroke-dashoffset:70;animation:WNjjoycK_draw_62 5200ms linear 0ms infinite,WNjjoycK_fade 5200ms linear 0ms infinite}.WNjjoycK_63{stroke-dasharray:107 109;stroke-dashoffset:108;animation:WNjjoycK_draw_63 5200ms linear 0ms infinite,WNjjoycK_fade 5200ms linear 0ms infinite}</style></svg>